solid vcg
  facet normal  0.000000e+00  1.000000e+00  0.000000e+00
    outer loop
      vertex  -1.600000e-02  1.600000e-02  9.600000e-02
      vertex  -4.800000e-02  1.600000e-02  9.600000e-02
      vertex  -4.800000e-02  1.600000e-02  1.280000e-01
    endloop
  endfacet
  facet normal  0.000000e+00  1.000000e+00  0.000000e+00
    outer loop
      vertex   4.800000e-02  1.600000e-02  1.280000e-01
      vertex   4.800000e-02  1.600000e-02  9.600000e-02
      vertex   1.600000e-02  1.600000e-02  9.600000e-02
    endloop
  endfacet
  facet normal  0.000000e+00  1.000000e+00 -0.000000e+00
    outer loop
      vertex   1.600000e-02  1.600000e-02  0.000000e+00
      vertex  -1.600000e-02  1.600000e-02  0.000000e+00
      vertex   1.600000e-02  1.600000e-02  9.600000e-02
    endloop
  endfacet
  facet normal  0.000000e+00  1.000000e+00  0.000000e+00
    outer loop
      vertex   1.600000e-02  1.600000e-02  9.600000e-02
      vertex  -1.600000e-02  1.600000e-02  0.000000e+00
      vertex  -1.600000e-02  1.600000e-02  9.600000e-02
    endloop
  endfacet
  facet normal  0.000000e+00  1.000000e+00 -0.000000e+00
    outer loop
      vertex   1.600000e-02  1.600000e-02  9.600000e-02
      vertex  -1.600000e-02  1.600000e-02  9.600000e-02
      vertex   4.800000e-02  1.600000e-02  1.280000e-01
    endloop
  endfacet
  facet normal  0.000000e+00  1.000000e+00  0.000000e+00
    outer loop
      vertex   4.800000e-02  1.600000e-02  1.280000e-01
      vertex  -1.600000e-02  1.600000e-02  9.600000e-02
      vertex  -4.800000e-02  1.600000e-02  1.280000e-01
    endloop
  endfacet
  facet normal -1.000000e+00  0.000000e+00  0.000000e+00
    outer loop
      vertex  -1.600000e-02 -1.600000e-02  9.600000e-02
      vertex  -1.600000e-02  1.600000e-02  9.600000e-02
      vertex  -1.600000e-02 -1.600000e-02  0.000000e+00
    endloop
  endfacet
  facet normal -1.000000e+00  0.000000e+00  0.000000e+00
    outer loop
      vertex  -1.600000e-02 -1.600000e-02  0.000000e+00
      vertex  -1.600000e-02  1.600000e-02  9.600000e-02
      vertex  -1.600000e-02  1.600000e-02  0.000000e+00
    endloop
  endfacet
  facet normal  0.000000e+00 -1.000000e+00  0.000000e+00
    outer loop
      vertex   1.600000e-02 -1.600000e-02  9.600000e-02
      vertex   4.800000e-02 -1.600000e-02  9.600000e-02
      vertex   4.800000e-02 -1.600000e-02  1.280000e-01
    endloop
  endfacet
  facet normal  0.000000e+00 -1.000000e+00  0.000000e+00
    outer loop
      vertex  -4.800000e-02 -1.600000e-02  1.280000e-01
      vertex  -4.800000e-02 -1.600000e-02  9.600000e-02
      vertex  -1.600000e-02 -1.600000e-02  9.600000e-02
    endloop
  endfacet
  facet normal  0.000000e+00 -1.000000e+00  0.000000e+00
    outer loop
      vertex  -1.600000e-02 -1.600000e-02  0.000000e+00
      vertex   1.600000e-02 -1.600000e-02  0.000000e+00
      vertex  -1.600000e-02 -1.600000e-02  9.600000e-02
    endloop
  endfacet
  facet normal  0.000000e+00 -1.000000e+00  0.000000e+00
    outer loop
      vertex  -1.600000e-02 -1.600000e-02  9.600000e-02
      vertex   1.600000e-02 -1.600000e-02  0.000000e+00
      vertex   1.600000e-02 -1.600000e-02  9.600000e-02
    endloop
  endfacet
  facet normal  0.000000e+00 -1.000000e+00  0.000000e+00
    outer loop
      vertex  -1.600000e-02 -1.600000e-02  9.600000e-02
      vertex   1.600000e-02 -1.600000e-02  9.600000e-02
      vertex  -4.800000e-02 -1.600000e-02  1.280000e-01
    endloop
  endfacet
  facet normal  0.000000e+00 -1.000000e+00  0.000000e+00
    outer loop
      vertex  -4.800000e-02 -1.600000e-02  1.280000e-01
      vertex   1.600000e-02 -1.600000e-02  9.600000e-02
      vertex   4.800000e-02 -1.600000e-02  1.280000e-01
    endloop
  endfacet
  facet normal  1.000000e+00  0.000000e+00  0.000000e+00
    outer loop
      vertex   1.600000e-02  1.600000e-02  9.600000e-02
      vertex   1.600000e-02 -1.600000e-02  9.600000e-02
      vertex   1.600000e-02  1.600000e-02  0.000000e+00
    endloop
  endfacet
  facet normal  1.000000e+00  0.000000e+00  0.000000e+00
    outer loop
      vertex   1.600000e-02  1.600000e-02  0.000000e+00
      vertex   1.600000e-02 -1.600000e-02  9.600000e-02
      vertex   1.600000e-02 -1.600000e-02  0.000000e+00
    endloop
  endfacet
  facet normal  0.000000e+00  0.000000e+00 -1.000000e+00
    outer loop
      vertex   1.600000e-02 -1.600000e-02  0.000000e+00
      vertex  -1.600000e-02 -1.600000e-02  0.000000e+00
      vertex   1.600000e-02  1.600000e-02  0.000000e+00
    endloop
  endfacet
  facet normal -0.000000e+00  0.000000e+00 -1.000000e+00
    outer loop
      vertex   1.600000e-02  1.600000e-02  0.000000e+00
      vertex  -1.600000e-02 -1.600000e-02  0.000000e+00
      vertex  -1.600000e-02  1.600000e-02  0.000000e+00
    endloop
  endfacet
  facet normal  0.000000e+00  0.000000e+00 -1.000000e+00
    outer loop
      vertex  -1.600000e-02 -1.600000e-02  9.600000e-02
      vertex  -4.800000e-02 -1.600000e-02  9.600000e-02
      vertex  -1.600000e-02  1.600000e-02  9.600000e-02
    endloop
  endfacet
  facet normal -0.000000e+00  0.000000e+00 -1.000000e+00
    outer loop
      vertex  -1.600000e-02  1.600000e-02  9.600000e-02
      vertex  -4.800000e-02 -1.600000e-02  9.600000e-02
      vertex  -4.800000e-02  1.600000e-02  9.600000e-02
    endloop
  endfacet
  facet normal  0.000000e+00  0.000000e+00 -1.000000e+00
    outer loop
      vertex   1.600000e-02  1.600000e-02  9.600000e-02
      vertex   4.800000e-02  1.600000e-02  9.600000e-02
      vertex   1.600000e-02 -1.600000e-02  9.600000e-02
    endloop
  endfacet
  facet normal  0.000000e+00  0.000000e+00 -1.000000e+00
    outer loop
      vertex   1.600000e-02 -1.600000e-02  9.600000e-02
      vertex   4.800000e-02  1.600000e-02  9.600000e-02
      vertex   4.800000e-02 -1.600000e-02  9.600000e-02
    endloop
  endfacet
  facet normal -1.000000e+00  0.000000e+00  0.000000e+00
    outer loop
      vertex  -4.800000e-02 -1.600000e-02  1.280000e-01
      vertex  -4.800000e-02  1.600000e-02  1.280000e-01
      vertex  -4.800000e-02 -1.600000e-02  9.600000e-02
    endloop
  endfacet
  facet normal -1.000000e+00  0.000000e+00  0.000000e+00
    outer loop
      vertex  -4.800000e-02 -1.600000e-02  9.600000e-02
      vertex  -4.800000e-02  1.600000e-02  1.280000e-01
      vertex  -4.800000e-02  1.600000e-02  9.600000e-02
    endloop
  endfacet
  facet normal  1.000000e+00  0.000000e+00  0.000000e+00
    outer loop
      vertex   4.800000e-02  1.600000e-02  1.280000e-01
      vertex   4.800000e-02 -1.600000e-02  1.280000e-01
      vertex   4.800000e-02  1.600000e-02  9.600000e-02
    endloop
  endfacet
  facet normal  1.000000e+00  0.000000e+00  0.000000e+00
    outer loop
      vertex   4.800000e-02  1.600000e-02  9.600000e-02
      vertex   4.800000e-02 -1.600000e-02  1.280000e-01
      vertex   4.800000e-02 -1.600000e-02  9.600000e-02
    endloop
  endfacet
  facet normal  0.000000e+00  0.000000e+00  1.000000e+00
    outer loop
      vertex  -4.800000e-02 -1.600000e-02  1.280000e-01
      vertex   4.800000e-02 -1.600000e-02  1.280000e-01
      vertex  -4.800000e-02  1.600000e-02  1.280000e-01
    endloop
  endfacet
  facet normal -0.000000e+00  0.000000e+00  1.000000e+00
    outer loop
      vertex  -4.800000e-02  1.600000e-02  1.280000e-01
      vertex   4.800000e-02 -1.600000e-02  1.280000e-01
      vertex   4.800000e-02  1.600000e-02  1.280000e-01
    endloop
  endfacet
endsolid vcg
