solid vcg
  facet normal -9.905465e-01  0.000000e+00  1.371771e-01
    outer loop
      vertex   3.465755e-02  1.525000e-02 -2.775558e-17
      vertex   3.465755e-02 -1.525000e-02 -2.775558e-17
      vertex   3.852183e-02  1.525000e-02  2.790370e-02
    endloop
  endfacet
  facet normal -9.905465e-01  0.000000e+00  1.371771e-01
    outer loop
      vertex   3.852183e-02  1.525000e-02  2.790370e-02
      vertex   3.465755e-02 -1.525000e-02 -2.775558e-17
      vertex   3.852183e-02 -1.525000e-02  2.790370e-02
    endloop
  endfacet
  facet normal  9.905878e-01 -0.000000e+00  1.368789e-01
    outer loop
      vertex  -3.465734e-02 -1.525000e-02 -2.775558e-17
      vertex  -3.465734e-02  1.525000e-02 -2.775558e-17
      vertex  -3.851322e-02 -1.525000e-02  2.790486e-02
    endloop
  endfacet
  facet normal  9.905878e-01 -0.000000e+00  1.368789e-01
    outer loop
      vertex  -3.851322e-02 -1.525000e-02  2.790486e-02
      vertex  -3.465734e-02  1.525000e-02 -2.775558e-17
      vertex  -3.851322e-02  1.525000e-02  2.790486e-02
    endloop
  endfacet
  facet normal -1.000000e+00  0.000000e+00  0.000000e+00
    outer loop
      vertex  -3.964000e-02  1.525000e-02 -2.000000e-02
      vertex  -3.964000e-02 -1.525000e-02 -2.000000e-02
      vertex  -3.964000e-02  1.525000e-02 -6.885000e-04
    endloop
  endfacet
  facet normal -1.000000e+00 -0.000000e+00  0.000000e+00
    outer loop
      vertex  -3.964000e-02  1.525000e-02 -6.885000e-04
      vertex  -3.964000e-02 -1.525000e-02 -2.000000e-02
      vertex  -3.964000e-02 -1.525000e-02 -6.885000e-04
    endloop
  endfacet
  facet normal  0.000000e+00  1.000000e+00  0.000000e+00
    outer loop
      vertex  -2.196125e-02  1.525000e-02  9.076209e-02
      vertex  -1.374852e-02  1.525000e-02  3.132683e-02
      vertex  -5.170860e-02  1.525000e-02  8.665163e-02
    endloop
  endfacet
  facet normal  0.000000e+00  1.000000e+00  0.000000e+00
    outer loop
      vertex  -5.170860e-02  1.525000e-02  8.665163e-02
      vertex  -1.374852e-02  1.525000e-02  3.132683e-02
      vertex  -3.851322e-02  1.525000e-02  2.790486e-02
    endloop
  endfacet
  facet normal  0.000000e+00  1.000000e+00  0.000000e+00
    outer loop
      vertex  -5.170860e-02  1.525000e-02  8.665163e-02
      vertex  -3.851322e-02  1.525000e-02  2.790486e-02
      vertex  -3.964000e-02  1.525000e-02 -6.885000e-04
    endloop
  endfacet
  facet normal  0.000000e+00  1.000000e+00  0.000000e+00
    outer loop
      vertex  -3.964000e-02  1.525000e-02 -6.885000e-04
      vertex  -3.851322e-02  1.525000e-02  2.790486e-02
      vertex  -3.465734e-02  1.525000e-02  0.000000e+00
    endloop
  endfacet
  facet normal  0.000000e+00  1.000000e+00  0.000000e+00
    outer loop
      vertex   3.465755e-02  1.525000e-02  3.469447e-18
      vertex   3.964000e-02  1.525000e-02 -2.000000e-02
      vertex  -3.465734e-02  1.525000e-02  0.000000e+00
    endloop
  endfacet
  facet normal  0.000000e+00  1.000000e+00  0.000000e+00
    outer loop
      vertex  -3.465734e-02  1.525000e-02  0.000000e+00
      vertex   3.964000e-02  1.525000e-02 -2.000000e-02
      vertex  -3.964000e-02  1.525000e-02 -2.000000e-02
    endloop
  endfacet
  facet normal  0.000000e+00  1.000000e+00  0.000000e+00
    outer loop
      vertex  -3.465734e-02  1.525000e-02  0.000000e+00
      vertex  -3.964000e-02  1.525000e-02 -2.000000e-02
      vertex  -3.964000e-02  1.525000e-02 -6.885000e-04
    endloop
  endfacet
  facet normal -0.000000e+00  1.000000e+00  0.000000e+00
    outer loop
      vertex   1.375816e-02  1.525000e-02  3.133312e-02
      vertex   2.198878e-02  1.525000e-02  9.076591e-02
      vertex   3.852183e-02  1.525000e-02  2.790370e-02
    endloop
  endfacet
  facet normal  0.000000e+00  1.000000e+00 -0.000000e+00
    outer loop
      vertex   3.852183e-02  1.525000e-02  2.790370e-02
      vertex   2.198878e-02  1.525000e-02  9.076591e-02
      vertex   5.173489e-02  1.525000e-02  8.664650e-02
    endloop
  endfacet
  facet normal -0.000000e+00  1.000000e+00  0.000000e+00
    outer loop
      vertex   3.852183e-02  1.525000e-02  2.790370e-02
      vertex   5.173489e-02  1.525000e-02  8.664650e-02
      vertex   3.465755e-02  1.525000e-02  3.469447e-18
    endloop
  endfacet
  facet normal -0.000000e+00  1.000000e+00  0.000000e+00
    outer loop
      vertex   3.465755e-02  1.525000e-02  3.469447e-18
      vertex   5.173489e-02  1.525000e-02  8.664650e-02
      vertex   3.964000e-02  1.525000e-02 -6.900000e-04
    endloop
  endfacet
  facet normal  0.000000e+00  1.000000e+00  0.000000e+00
    outer loop
      vertex   3.465755e-02  1.525000e-02  3.469447e-18
      vertex   3.964000e-02  1.525000e-02 -6.900000e-04
      vertex   3.964000e-02  1.525000e-02 -2.000000e-02
    endloop
  endfacet
  facet normal  1.000000e+00  0.000000e+00  0.000000e+00
    outer loop
      vertex   3.964000e-02 -1.525000e-02 -2.000000e-02
      vertex   3.964000e-02  1.525000e-02 -2.000000e-02
      vertex   3.964000e-02 -1.525000e-02 -6.900000e-04
    endloop
  endfacet
  facet normal  1.000000e+00 -0.000000e+00  0.000000e+00
    outer loop
      vertex   3.964000e-02 -1.525000e-02 -6.900000e-04
      vertex   3.964000e-02  1.525000e-02 -2.000000e-02
      vertex   3.964000e-02  1.525000e-02 -6.900000e-04
    endloop
  endfacet
  facet normal  0.000000e+00 -1.000000e+00  0.000000e+00
    outer loop
      vertex   3.465755e-02 -1.525000e-02  3.469447e-18
      vertex  -3.465734e-02 -1.525000e-02  0.000000e+00
      vertex  -3.964000e-02 -1.525000e-02 -2.000000e-02
    endloop
  endfacet
  facet normal -0.000000e+00 -1.000000e+00  0.000000e+00
    outer loop
      vertex  -1.374852e-02 -1.525000e-02  3.132683e-02
      vertex  -2.196125e-02 -1.525000e-02  9.076209e-02
      vertex  -3.851322e-02 -1.525000e-02  2.790486e-02
    endloop
  endfacet
  facet normal  0.000000e+00 -1.000000e+00  0.000000e+00
    outer loop
      vertex  -3.851322e-02 -1.525000e-02  2.790486e-02
      vertex  -2.196125e-02 -1.525000e-02  9.076209e-02
      vertex  -5.170860e-02 -1.525000e-02  8.665163e-02
    endloop
  endfacet
  facet normal -0.000000e+00 -1.000000e+00 -0.000000e+00
    outer loop
      vertex  -3.851322e-02 -1.525000e-02  2.790486e-02
      vertex  -5.170860e-02 -1.525000e-02  8.665163e-02
      vertex  -3.465734e-02 -1.525000e-02  0.000000e+00
    endloop
  endfacet
  facet normal -0.000000e+00 -1.000000e+00  0.000000e+00
    outer loop
      vertex  -3.465734e-02 -1.525000e-02  0.000000e+00
      vertex  -5.170860e-02 -1.525000e-02  8.665163e-02
      vertex  -3.964000e-02 -1.525000e-02 -6.885000e-04
    endloop
  endfacet
  facet normal  0.000000e+00 -1.000000e+00  0.000000e+00
    outer loop
      vertex  -3.465734e-02 -1.525000e-02  0.000000e+00
      vertex  -3.964000e-02 -1.525000e-02 -6.885000e-04
      vertex  -3.964000e-02 -1.525000e-02 -2.000000e-02
    endloop
  endfacet
  facet normal  0.000000e+00 -1.000000e+00 -0.000000e+00
    outer loop
      vertex   2.198878e-02 -1.525000e-02  9.076591e-02
      vertex   1.375816e-02 -1.525000e-02  3.133312e-02
      vertex   5.173489e-02 -1.525000e-02  8.664650e-02
    endloop
  endfacet
  facet normal  0.000000e+00 -1.000000e+00  0.000000e+00
    outer loop
      vertex   5.173489e-02 -1.525000e-02  8.664650e-02
      vertex   1.375816e-02 -1.525000e-02  3.133312e-02
      vertex   3.852183e-02 -1.525000e-02  2.790370e-02
    endloop
  endfacet
  facet normal  0.000000e+00 -1.000000e+00  0.000000e+00
    outer loop
      vertex   5.173489e-02 -1.525000e-02  8.664650e-02
      vertex   3.852183e-02 -1.525000e-02  2.790370e-02
      vertex   3.964000e-02 -1.525000e-02 -6.900000e-04
    endloop
  endfacet
  facet normal  0.000000e+00 -1.000000e+00  0.000000e+00
    outer loop
      vertex   3.964000e-02 -1.525000e-02 -6.900000e-04
      vertex   3.852183e-02 -1.525000e-02  2.790370e-02
      vertex   3.465755e-02 -1.525000e-02  3.469447e-18
    endloop
  endfacet
  facet normal -0.000000e+00 -1.000000e+00 -0.000000e+00
    outer loop
      vertex   3.964000e-02 -1.525000e-02 -6.900000e-04
      vertex   3.465755e-02 -1.525000e-02  3.469447e-18
      vertex   3.964000e-02 -1.525000e-02 -2.000000e-02
    endloop
  endfacet
  facet normal  0.000000e+00 -1.000000e+00  0.000000e+00
    outer loop
      vertex   3.964000e-02 -1.525000e-02 -2.000000e-02
      vertex   3.465755e-02 -1.525000e-02  3.469447e-18
      vertex  -3.964000e-02 -1.525000e-02 -2.000000e-02
    endloop
  endfacet
  facet normal -0.000000e+00 -0.000000e+00 -1.000000e+00
    outer loop
      vertex   3.964000e-02  1.525000e-02 -2.000000e-02
      vertex   3.964000e-02 -1.525000e-02 -2.000000e-02
      vertex  -3.964000e-02  1.525000e-02 -2.000000e-02
    endloop
  endfacet
  facet normal  0.000000e+00  0.000000e+00 -1.000000e+00
    outer loop
      vertex  -3.964000e-02  1.525000e-02 -2.000000e-02
      vertex   3.964000e-02 -1.525000e-02 -2.000000e-02
      vertex  -3.964000e-02 -1.525000e-02 -2.000000e-02
    endloop
  endfacet
  facet normal  0.000000e+00  0.000000e+00  1.000000e+00
    outer loop
      vertex   3.465755e-02  1.525000e-02  0.000000e+00
      vertex  -3.465734e-02  1.525000e-02  0.000000e+00
      vertex   3.465755e-02 -1.525000e-02  0.000000e+00
    endloop
  endfacet
  facet normal  0.000000e+00  0.000000e+00  1.000000e+00
    outer loop
      vertex   3.465755e-02 -1.525000e-02  0.000000e+00
      vertex  -3.465734e-02  1.525000e-02  0.000000e+00
      vertex  -3.465734e-02 -1.525000e-02  0.000000e+00
    endloop
  endfacet
  facet normal  9.905465e-01  0.000000e+00 -1.371769e-01
    outer loop
      vertex   5.173489e-02  1.525000e-02  8.664650e-02
      vertex   5.173489e-02 -1.525000e-02  8.664650e-02
      vertex   3.964000e-02  1.525000e-02 -6.900000e-04
    endloop
  endfacet
  facet normal  9.905465e-01  0.000000e+00 -1.371769e-01
    outer loop
      vertex   3.964000e-02  1.525000e-02 -6.900000e-04
      vertex   5.173489e-02 -1.525000e-02  8.664650e-02
      vertex   3.964000e-02 -1.525000e-02 -6.900000e-04
    endloop
  endfacet
  facet normal  1.371765e-01 -0.000000e+00  9.905466e-01
    outer loop
      vertex   2.198878e-02 -1.525000e-02  9.076591e-02
      vertex   5.173489e-02 -1.525000e-02  8.664650e-02
      vertex   2.198878e-02  1.525000e-02  9.076591e-02
    endloop
  endfacet
  facet normal  1.371765e-01  0.000000e+00  9.905466e-01
    outer loop
      vertex   2.198878e-02  1.525000e-02  9.076591e-02
      vertex   5.173489e-02 -1.525000e-02  8.664650e-02
      vertex   5.173489e-02  1.525000e-02  8.664650e-02
    endloop
  endfacet
  facet normal -9.905878e-01  0.000000e+00 -1.368787e-01
    outer loop
      vertex  -5.170860e-02 -1.525000e-02  8.665163e-02
      vertex  -5.170860e-02  1.525000e-02  8.665163e-02
      vertex  -3.964000e-02 -1.525000e-02 -6.885000e-04
    endloop
  endfacet
  facet normal -9.905878e-01  0.000000e+00 -1.368787e-01
    outer loop
      vertex  -3.964000e-02 -1.525000e-02 -6.885000e-04
      vertex  -5.170860e-02  1.525000e-02  8.665163e-02
      vertex  -3.964000e-02  1.525000e-02 -6.885000e-04
    endloop
  endfacet
  facet normal -1.368786e-01  0.000000e+00  9.905878e-01
    outer loop
      vertex  -2.196125e-02  1.525000e-02  9.076209e-02
      vertex  -5.170860e-02  1.525000e-02  8.665163e-02
      vertex  -2.196125e-02 -1.525000e-02  9.076209e-02
    endloop
  endfacet
  facet normal -1.368786e-01  0.000000e+00  9.905878e-01
    outer loop
      vertex  -2.196125e-02 -1.525000e-02  9.076209e-02
      vertex  -5.170860e-02  1.525000e-02  8.665163e-02
      vertex  -5.170860e-02 -1.525000e-02  8.665163e-02
    endloop
  endfacet
  facet normal  1.368787e-01  0.000000e+00 -9.905878e-01
    outer loop
      vertex  -1.374852e-02  1.525000e-02  3.132683e-02
      vertex  -1.374852e-02 -1.525000e-02  3.132683e-02
      vertex  -3.851322e-02  1.525000e-02  2.790486e-02
    endloop
  endfacet
  facet normal  1.368787e-01  0.000000e+00 -9.905878e-01
    outer loop
      vertex  -3.851322e-02  1.525000e-02  2.790486e-02
      vertex  -1.374852e-02 -1.525000e-02  3.132683e-02
      vertex  -3.851322e-02 -1.525000e-02  2.790486e-02
    endloop
  endfacet
  facet normal  9.905878e-01 -0.000000e+00  1.368788e-01
    outer loop
      vertex  -1.374852e-02 -1.525000e-02  3.132683e-02
      vertex  -1.374852e-02  1.525000e-02  3.132683e-02
      vertex  -2.196125e-02 -1.525000e-02  9.076209e-02
    endloop
  endfacet
  facet normal  9.905878e-01 -0.000000e+00  1.368788e-01
    outer loop
      vertex  -2.196125e-02 -1.525000e-02  9.076209e-02
      vertex  -1.374852e-02  1.525000e-02  3.132683e-02
      vertex  -2.196125e-02  1.525000e-02  9.076209e-02
    endloop
  endfacet
  facet normal -1.371768e-01  0.000000e+00 -9.905466e-01
    outer loop
      vertex   1.375816e-02 -1.525000e-02  3.133312e-02
      vertex   1.375816e-02  1.525000e-02  3.133312e-02
      vertex   3.852183e-02 -1.525000e-02  2.790370e-02
    endloop
  endfacet
  facet normal -1.371768e-01  0.000000e+00 -9.905466e-01
    outer loop
      vertex   3.852183e-02 -1.525000e-02  2.790370e-02
      vertex   1.375816e-02  1.525000e-02  3.133312e-02
      vertex   3.852183e-02  1.525000e-02  2.790370e-02
    endloop
  endfacet
  facet normal -9.905466e-01  0.000000e+00  1.371770e-01
    outer loop
      vertex   2.198878e-02  1.525000e-02  9.076591e-02
      vertex   1.375816e-02  1.525000e-02  3.133312e-02
      vertex   2.198878e-02 -1.525000e-02  9.076591e-02
    endloop
  endfacet
  facet normal -9.905466e-01  0.000000e+00  1.371770e-01
    outer loop
      vertex   2.198878e-02 -1.525000e-02  9.076591e-02
      vertex   1.375816e-02  1.525000e-02  3.133312e-02
      vertex   1.375816e-02 -1.525000e-02  3.133312e-02
    endloop
  endfacet
endsolid vcg
